<svg xmlns="http://www.w3.org/2000/svg" width="22" height="22" viewBox="0 0 22 22" fill="none">
<path d="M19.4375 1H2.5625C1.69922 1 1 1.69922 1 2.5625V19.4375C1 20.3008 1.69922 21 2.5625 21H19.4375C20.3008 21 21 20.3008 21 19.4375V2.5625C21 1.69922 20.3008 1 19.4375 1ZM19.8281 19.4375C19.8281 19.6523 19.6523 19.8281 19.4375 19.8281H2.5625C2.34766 19.8281 2.17188 19.6523 2.17188 19.4375V2.5625C2.17188 2.34766 2.34766 2.17188 2.5625 2.17188H19.4375C19.6523 2.17188 19.8281 2.34766 19.8281 2.5625V19.4375Z" fill="#787878" stroke="#787878" stroke-width="0.125"/>
<path d="M12.4922 6.87108L12.6016 6.70702L12.7109 6.54686L12.9531 6.18358C12.9844 6.14061 12.9727 6.07811 12.9258 6.05077C12.8828 6.01952 12.8203 6.03123 12.793 6.07811L12.5352 6.46483L12.4258 6.62889L12.3164 6.79295C11.9648 6.65624 11.5781 6.58202 11.1641 6.58202C10.7539 6.58202 10.3633 6.65624 10.0117 6.79295L9.90234 6.62889L9.79297 6.46483L9.53516 6.07811C9.50391 6.03514 9.44531 6.02342 9.40234 6.05077C9.35938 6.08202 9.34766 6.14061 9.375 6.18358L9.61719 6.54686L9.72656 6.70702L9.83594 6.87108C9.01563 7.25389 8.45703 7.97655 8.45703 8.80858H13.875C13.8711 7.97655 13.3164 7.25389 12.4922 6.87108ZM10 8.03123C9.83984 8.03123 9.71094 7.90233 9.71094 7.74217C9.71094 7.58202 9.83984 7.45311 10 7.45311C10.1602 7.45311 10.2891 7.58202 10.2891 7.74217C10.2891 7.90233 10.1602 8.03123 10 8.03123ZM12.3203 8.03123C12.1602 8.03123 12.0312 7.90233 12.0312 7.74217C12.0312 7.58202 12.1602 7.45311 12.3203 7.45311C12.4805 7.45311 12.6094 7.58202 12.6094 7.74217C12.6133 7.90233 12.4844 8.03123 12.3203 8.03123Z" fill="#787878" stroke="#787878" stroke-width="0.125"/>
<path d="M8.49219 9.19531H8.44922V9.67578V10.0703V13.4531C8.44922 13.793 8.72266 14.0664 9.0625 14.0664H9.50391C9.48828 14.1172 9.48047 14.1719 9.48047 14.2266V14.2578V14.4531V15.4531C9.48047 15.7734 9.74219 16.0352 10.0625 16.0352C10.3828 16.0352 10.6445 15.7734 10.6445 15.4531V14.4531V14.2578V14.2266C10.6445 14.1719 10.6367 14.1172 10.6211 14.0664H11.6992C11.6836 14.1172 11.6758 14.1719 11.6758 14.2266V14.2578V14.4531V15.4531C11.6758 15.7734 11.9375 16.0352 12.2578 16.0352C12.5781 16.0352 12.8398 15.7734 12.8398 15.4531V14.4531V14.2578V14.2266C12.8398 14.1719 12.832 14.1172 12.8164 14.0664H13.2578C13.5977 14.0664 13.8711 13.793 13.8711 13.4531V10.0703V9.67578V9.19141H13.8281H8.49219V9.19531Z" fill="#787878" stroke="#787878" stroke-width="0.125"/>
<path d="M7.48437 9.19531C7.16406 9.19531 6.90234 9.45703 6.90234 9.77734V12.2617C6.90234 12.582 7.16406 12.8438 7.48437 12.8438C7.80469 12.8438 8.06641 12.582 8.06641 12.2617V9.77734C8.0625 9.45312 7.80469 9.19531 7.48437 9.19531Z" fill="#787878" stroke="#787878" stroke-width="0.125"/>
<path d="M14.8398 9.19531C14.5195 9.19531 14.2578 9.45703 14.2578 9.77734V12.2617C14.2578 12.582 14.5195 12.8438 14.8398 12.8438C15.1602 12.8438 15.4219 12.582 15.4219 12.2617V9.77734C15.418 9.45312 15.1602 9.19531 14.8398 9.19531Z" fill="#787878" stroke="#787878" stroke-width="0.125"/>
</svg>