<svg xmlns="http://www.w3.org/2000/svg" width="22" height="22" viewBox="0 0 22 22" fill="none">
<path d="M19.4375 1H2.5625C1.69922 1 1 1.69922 1 2.5625V19.4375C1 20.3008 1.69922 21 2.5625 21H19.4375C20.3008 21 21 20.3008 21 19.4375V2.5625C21 1.69922 20.3008 1 19.4375 1ZM19.8281 19.4375C19.8281 19.6523 19.6523 19.8281 19.4375 19.8281H2.5625C2.34766 19.8281 2.17188 19.6523 2.17188 19.4375V2.5625C2.17188 2.34766 2.34766 2.17188 2.5625 2.17188H19.4375C19.6523 2.17188 19.8281 2.34766 19.8281 2.5625V19.4375Z" fill="#787878" stroke="#787878" stroke-width="0.125"/>
<path d="M12.3203 7.58984C12.7227 7.58984 13.1523 7.71484 13.1523 7.71484L13.4102 6.18359C13.4102 6.18359 12.8633 5.99609 11.5586 5.99609C10.7578 5.99609 10.293 6.30078 9.95312 6.75C9.63281 7.17578 9.62109 7.85938 9.62109 8.30078V9.30469H8.58594V10.8008H9.62109V15.9961H11.5586V10.8008H13.0938L13.207 9.30469H11.5586V8.13672C11.5586 7.73438 11.918 7.58984 12.3203 7.58984Z" fill="#787878" stroke="#787878" stroke-width="0.125"/>
</svg>
