<svg xmlns="http://www.w3.org/2000/svg" width="22" height="22" viewBox="0 0 22 22" fill="none">
<path d="M19.4375 1H2.5625C1.69922 1 1 1.69922 1 2.5625V19.4375C1 20.3008 1.69922 21 2.5625 21H19.4375C20.3008 21 21 20.3008 21 19.4375V2.5625C21 1.69922 20.3008 1 19.4375 1ZM19.8281 19.4375C19.8281 19.6523 19.6523 19.8281 19.4375 19.8281H2.5625C2.34766 19.8281 2.17188 19.6523 2.17188 19.4375V2.5625C2.17188 2.34766 2.34766 2.17188 2.5625 2.17188H19.4375C19.6523 2.17188 19.8281 2.34766 19.8281 2.5625V19.4375Z" fill="#787878" stroke="#787878" stroke-width="0.125"/>
<path d="M14.0703 6H7.9375C6.87109 6 6.00391 6.86719 6.00391 7.93359V9.97656V14.0703C6.00391 15.1367 6.87109 16.0039 7.9375 16.0039H14.0703C15.1367 16.0039 16.0039 15.1367 16.0039 14.0703V9.97266V7.92969C16 6.86719 15.1328 6 14.0703 6ZM14.625 7.15234H14.8477V7.37109V8.84766L13.1562 8.85156L13.1523 7.15625L14.625 7.15234ZM9.57422 9.97266C9.89453 9.53125 10.4141 9.23828 11 9.23828C11.5859 9.23828 12.1055 9.52734 12.4258 9.97266C12.6367 10.2617 12.7578 10.6172 12.7578 11C12.7578 11.9688 11.9688 12.7617 10.9961 12.7617C10.0234 12.7617 9.24219 11.9688 9.24219 11C9.24219 10.6172 9.36719 10.2617 9.57422 9.97266ZM15.0273 14.0664C15.0273 14.5938 14.5977 15.0234 14.0703 15.0234H7.9375C7.41016 15.0234 6.98047 14.5938 6.98047 14.0664V9.97266H8.47266C8.34375 10.2891 8.26953 10.6367 8.26953 11C8.26953 12.5078 9.49609 13.7344 11.0039 13.7344C12.5117 13.7344 13.7383 12.5078 13.7383 11C13.7383 10.6367 13.6641 10.2891 13.5352 9.97266H15.0273V14.0664Z" fill="#787878" stroke="#787878" stroke-width="0.125"/>
</svg>