<svg xmlns="http://www.w3.org/2000/svg" width="22" height="22" viewBox="0 0 22 22" fill="none">
<path d="M19.4375 1H2.5625C1.69922 1 1 1.69922 1 2.5625V19.4375C1 20.3008 1.69922 21 2.5625 21H19.4375C20.3008 21 21 20.3008 21 19.4375V2.5625C21 1.69922 20.3008 1 19.4375 1ZM19.8281 19.4375C19.8281 19.6523 19.6523 19.8281 19.4375 19.8281H2.5625C2.34766 19.8281 2.17188 19.6523 2.17188 19.4375V2.5625C2.17188 2.34766 2.34766 2.17188 2.5625 2.17188H19.4375C19.6523 2.17188 19.8281 2.34766 19.8281 2.5625V19.4375Z" fill="#787878" stroke="#787878" stroke-width="0.125"/>
<path d="M15.7383 7.56641C15.3398 7.80078 14.9023 7.97266 14.4336 8.06641C14.0586 7.66797 13.5234 7.41797 12.9336 7.41797C11.8008 7.41797 10.8789 8.33984 10.8789 9.47266C10.8789 9.63281 10.8945 9.78906 10.9336 9.94141C9.22656 9.85547 7.71094 9.03906 6.69922 7.79297C6.52344 8.09766 6.42188 8.44922 6.42188 8.82813C6.42188 9.53906 6.78516 10.168 7.33594 10.5391C7 10.5273 6.68359 10.4336 6.40625 10.2813V10.3047C6.40625 11.3008 7.11328 12.1328 8.05469 12.3203C7.88281 12.3672 7.69922 12.3945 7.51172 12.3945C7.37891 12.3945 7.25 12.3828 7.125 12.3594C7.38672 13.1758 8.14453 13.7695 9.04297 13.7852C8.33984 14.3359 7.45312 14.6641 6.49219 14.6641C6.32813 14.6641 6.16406 14.6563 6 14.6367C6.91016 15.2188 7.98828 15.5586 9.14844 15.5586C12.9297 15.5586 14.9961 12.4258 14.9961 9.71094C14.9961 9.62109 14.9961 9.53125 14.9922 9.44531C15.3945 9.15234 15.7422 8.79297 16.0156 8.37891C15.6484 8.54297 15.25 8.65234 14.8359 8.70313C15.2617 8.44922 15.5859 8.04688 15.7383 7.56641Z" fill="#787878" stroke="#787878" stroke-width="0.125"/>
</svg>