<svg width="371" height="342" viewBox="0 0 371 342" fill="none" xmlns="http://www.w3.org/2000/svg">
<g clip-path="url(#clip0_101_760)">
<path d="M311.931 202.82C328.971 150.001 328.021 115.926 308.923 95.5867C304.903 91.3205 300.284 87.6608 295.212 84.7221C288.527 80.8068 281.75 79.0258 274.58 77.1453C265.938 74.8811 256.122 72.3086 243.828 65.1092C231.534 57.9098 224.479 50.609 218.262 44.1716C213.112 38.8307 208.248 33.7949 201.581 29.8911C196.361 26.8099 190.738 24.4693 184.874 22.9364C157.93 16.2739 127.763 32.1128 89.8761 72.7437C49.1142 116.472 36.0576 151.506 53.0456 171.356C55.3633 174.096 58.1253 176.426 61.2161 178.249C75.8118 186.797 94.6352 181.493 108.461 176.224C124.095 170.25 138.019 170.729 170.751 189.897C199.986 207.018 209.763 218.067 212.592 237.203C214.369 249.233 217.224 258.593 221.307 265.824C226.739 275.436 234.348 281.32 243.949 283.255C259.056 286.332 272.925 279.201 285.18 262.055C294.566 248.9 303.318 229.526 311.931 202.82ZM179.297 121.625L163.691 112.486L154.553 128.092C153.341 130.161 151.357 131.664 149.037 132.27C146.716 132.877 144.25 132.537 142.181 131.325C140.112 130.113 138.608 128.129 138.002 125.809C137.396 123.488 137.736 121.022 138.948 118.953L148.086 103.348L132.481 94.2093C130.412 92.9975 128.908 91.0132 128.302 88.693C127.696 86.3729 128.036 83.9068 129.248 81.8375C130.459 79.7681 132.444 78.2649 134.764 77.6585C137.084 77.0521 139.55 77.3923 141.619 78.6041L157.225 87.7426L166.363 72.1374C167.575 70.0681 169.559 68.5648 171.879 67.9585C174.2 67.3521 176.666 67.6922 178.735 68.9041C180.804 70.1159 182.308 72.1002 182.914 74.4204C183.52 76.7405 183.18 79.2065 181.968 81.2759L172.83 96.8811L188.435 106.02C190.504 107.231 192.008 109.216 192.614 111.536C193.22 113.856 192.88 116.322 191.668 118.391C190.457 120.461 188.472 121.964 186.152 122.57C183.832 123.177 181.366 122.837 179.297 121.625ZM219.118 147.564C217.189 146.434 215.638 144.758 214.662 142.747C213.685 140.736 213.327 138.481 213.633 136.266C213.938 134.052 214.894 131.978 216.378 130.306C217.862 128.635 219.809 127.441 221.972 126.876C224.134 126.31 226.416 126.399 228.528 127.131C230.641 127.862 232.489 129.204 233.839 130.986C235.189 132.768 235.98 134.91 236.112 137.141C236.245 139.373 235.712 141.593 234.583 143.522C233.068 146.109 230.588 147.988 227.687 148.746C224.787 149.504 221.705 149.079 219.118 147.564ZM228.01 181.587C226.08 180.456 224.528 178.779 223.552 176.767C222.576 174.754 222.219 172.497 222.526 170.282C222.833 168.067 223.79 165.992 225.277 164.321C226.763 162.65 228.712 161.457 230.877 160.895C233.042 160.332 235.325 160.424 237.437 161.159C239.549 161.894 241.396 163.24 242.743 165.025C244.09 166.811 244.878 168.955 245.005 171.188C245.133 173.421 244.595 175.642 243.46 177.569C241.941 180.148 239.462 182.019 236.565 182.772C233.669 183.525 230.592 183.099 228.01 181.587ZM253.14 138.672C251.211 137.543 249.661 135.866 248.684 133.855C247.708 131.844 247.35 129.589 247.655 127.375C247.961 125.16 248.916 123.086 250.4 121.415C251.885 119.743 253.831 118.549 255.994 117.984C258.157 117.419 260.439 117.507 262.551 118.239C264.663 118.971 266.511 120.312 267.861 122.094C269.211 123.876 270.002 126.018 270.135 128.249C270.267 130.481 269.735 132.702 268.605 134.631C267.09 137.217 264.61 139.096 261.71 139.854C258.81 140.612 255.727 140.187 253.14 138.672ZM262.032 172.695C260.103 171.565 258.552 169.889 257.576 167.878C256.6 165.867 256.242 163.612 256.547 161.397C256.853 159.183 257.808 157.109 259.292 155.437C260.776 153.766 262.723 152.572 264.886 152.006C267.049 151.441 269.33 151.53 271.443 152.262C273.555 152.993 275.403 154.335 276.753 156.117C278.103 157.898 278.894 160.041 279.026 162.272C279.159 164.504 278.627 166.724 277.497 168.653C275.982 171.24 273.502 173.119 270.602 173.877C267.701 174.635 264.619 174.21 262.032 172.695Z" fill="#1B1C28" stroke="#9589C8" stroke-opacity="0.6" stroke-width="3.66" stroke-linecap="round" stroke-linejoin="round"/>
<path d="M311.931 202.82C328.971 150.001 328.021 115.926 308.923 95.5867C304.903 91.3205 300.284 87.6608 295.212 84.7221C288.527 80.8068 281.75 79.0258 274.58 77.1453C265.938 74.8811 256.122 72.3086 243.828 65.1092C231.534 57.9098 224.479 50.609 218.262 44.1716C213.112 38.8307 208.248 33.7949 201.581 29.8911C196.361 26.8099 190.738 24.4693 184.874 22.9364C157.93 16.2739 127.763 32.1128 89.8761 72.7437C49.1142 116.472 36.0576 151.506 53.0456 171.356C55.3633 174.096 58.1253 176.426 61.2161 178.249C75.8118 186.797 94.6352 181.493 108.461 176.224C124.095 170.25 138.019 170.729 170.751 189.897C199.986 207.018 209.763 218.067 212.592 237.203C214.369 249.233 217.224 258.593 221.307 265.824C226.739 275.436 234.348 281.32 243.949 283.255C259.056 286.332 272.925 279.201 285.18 262.055C294.566 248.9 303.318 229.526 311.931 202.82ZM179.297 121.625L163.691 112.486L154.553 128.092C153.341 130.161 151.357 131.664 149.037 132.27C146.716 132.877 144.25 132.537 142.181 131.325C140.112 130.113 138.608 128.129 138.002 125.809C137.396 123.488 137.736 121.022 138.948 118.953L148.086 103.348L132.481 94.2093C130.412 92.9975 128.908 91.0132 128.302 88.693C127.696 86.3729 128.036 83.9068 129.248 81.8375C130.459 79.7681 132.444 78.2649 134.764 77.6585C137.084 77.0521 139.55 77.3923 141.619 78.6041L157.225 87.7426L166.363 72.1374C167.575 70.0681 169.559 68.5648 171.879 67.9585C174.2 67.3521 176.666 67.6922 178.735 68.9041C180.804 70.1159 182.308 72.1002 182.914 74.4204C183.52 76.7405 183.18 79.2065 181.968 81.2759L172.83 96.8811L188.435 106.02C190.504 107.231 192.008 109.216 192.614 111.536C193.22 113.856 192.88 116.322 191.668 118.391C190.457 120.461 188.472 121.964 186.152 122.57C183.832 123.177 181.366 122.837 179.297 121.625ZM219.118 147.564C217.189 146.434 215.638 144.758 214.662 142.747C213.685 140.736 213.327 138.481 213.633 136.266C213.938 134.052 214.894 131.978 216.378 130.306C217.862 128.635 219.809 127.441 221.972 126.876C224.134 126.31 226.416 126.399 228.528 127.131C230.641 127.862 232.489 129.204 233.839 130.986C235.189 132.768 235.98 134.91 236.112 137.141C236.245 139.373 235.712 141.593 234.583 143.522C233.068 146.109 230.588 147.988 227.687 148.746C224.787 149.504 221.705 149.079 219.118 147.564ZM228.01 181.587C226.08 180.456 224.528 178.779 223.552 176.767C222.576 174.754 222.219 172.497 222.526 170.282C222.833 168.067 223.79 165.992 225.277 164.321C226.763 162.65 228.712 161.457 230.877 160.895C233.042 160.332 235.325 160.424 237.437 161.159C239.549 161.894 241.396 163.24 242.743 165.025C244.09 166.811 244.878 168.955 245.005 171.188C245.133 173.421 244.595 175.642 243.46 177.569C241.941 180.148 239.462 182.019 236.565 182.772C233.669 183.525 230.592 183.099 228.01 181.587ZM253.14 138.672C251.211 137.543 249.661 135.866 248.684 133.855C247.708 131.844 247.35 129.589 247.655 127.375C247.961 125.16 248.916 123.086 250.4 121.415C251.885 119.743 253.831 118.549 255.994 117.984C258.157 117.419 260.439 117.507 262.551 118.239C264.663 118.971 266.511 120.312 267.861 122.094C269.211 123.876 270.002 126.018 270.135 128.249C270.267 130.481 269.735 132.702 268.605 134.631C267.09 137.217 264.61 139.096 261.71 139.854C258.81 140.612 255.727 140.187 253.14 138.672ZM262.032 172.695C260.103 171.565 258.552 169.889 257.576 167.878C256.6 165.867 256.242 163.612 256.547 161.397C256.853 159.183 257.808 157.109 259.292 155.437C260.776 153.766 262.723 152.572 264.886 152.006C267.049 151.441 269.33 151.53 271.443 152.262C273.555 152.993 275.403 154.335 276.753 156.117C278.103 157.898 278.894 160.041 279.026 162.272C279.159 164.504 278.627 166.724 277.497 168.653C275.982 171.24 273.502 173.119 270.602 173.877C267.701 174.635 264.619 174.21 262.032 172.695Z" fill="#1B1C28" stroke="#1B1C28" stroke-width="0.357422"/>
</g>
<defs>
<clipPath id="clip0_101_760">
<rect width="289.345" height="289.345" fill="white" transform="translate(146.402 -54.8145) rotate(30.3535)"/>
</clipPath>
</defs>
</svg>
