<svg xmlns="http://www.w3.org/2000/svg" width="126" height="59" viewBox="0 0 126 59" fill="none">
<path d="M84.4079 44.3867C84.4079 49.0121 88.1894 52.7607 92.8538 52.7607C97.5198 52.7607 101.301 49.0121 101.301 44.3867C101.301 39.7627 97.5198 36.0141 92.8538 36.0141C88.1349 36.0141 84.4079 39.8168 84.4079 44.3867ZM78.1155 44.6314H44.4059C44.2742 52.6031 37.7122 59 29.6675 59C21.6229 59 15.0609 52.6031 14.9292 44.6314H3.14697C1.40841 44.6314 0 43.2352 0 41.5117V23.6977C0 22.4216 0.772356 21.3257 1.8794 20.8423L32.5525 4.85225C34.6621 3.75182 37.1564 5.29663 37.1564 7.60708L37.1624 20.578H41.4467V13.2113C41.4467 11.4879 42.8567 10.0917 44.5937 10.0917H58.796C60.5345 10.0917 61.9444 11.4879 61.9444 13.2113V20.578H77.5309V16.945L65.8456 5.36119C62.9182 2.45923 67.3691 -1.953 70.295 0.948956L82.9041 13.4485C83.4735 14.013 83.8263 14.7922 83.8263 15.6539V20.578H105.105C116.605 20.578 126 29.8934 126 41.2925C126 43.1091 124.44 44.5398 122.615 44.4032L107.594 44.5788C107.491 52.5716 100.918 59 92.8538 59C84.8107 59 78.2487 52.6031 78.1155 44.6314ZM43.1141 38.3921H79.4072C81.7849 33.1602 87.0354 29.7733 92.8538 29.7733C98.6677 29.7733 103.914 33.1527 106.296 38.3786L119.374 38.2255C117.918 31.6169 111.955 26.8173 105.105 26.8173C81.4093 26.8173 57.7116 26.8173 34.0155 26.8173C32.2769 26.8173 30.8685 25.4211 30.8685 23.6977V12.7639L6.29394 25.5743V38.3921H16.221C18.5986 33.1587 23.8476 29.7733 29.6675 29.7733C35.4875 29.7733 40.7365 33.1587 43.1141 38.3921ZM29.6675 36.0141C25.0031 36.0141 21.2216 39.7627 21.2216 44.3867C21.2216 49.0121 25.0031 52.7607 29.6675 52.7607C34.3335 52.7607 38.115 49.0121 38.115 44.3867C38.115 39.7627 34.332 36.0141 29.6675 36.0141ZM55.649 20.578V16.3309H47.7407V20.578H55.649Z" fill="url(#paint0_linear_137_2908)"/>
<defs>
<linearGradient id="paint0_linear_137_2908" x1="63" y1="0" x2="63" y2="59" gradientUnits="userSpaceOnUse">
<stop stop-color="#6842FF"/>
<stop offset="1"/>
</linearGradient>
</defs>
</svg>