<svg xmlns="http://www.w3.org/2000/svg" width="103" height="111" viewBox="0 0 103 111" fill="none">
<path d="M93.9802 4.65227L93.9802 4.65222C93.0283 3.70221 93.0282 2.16178 93.9802 1.21191C94.9315 0.262737 96.4738 0.262651 97.4249 1.21191C97.425 1.21193 97.425 1.21195 97.425 1.21196L97.9837 1.76945L98.3413 1.41272C99.2924 0.463406 100.835 0.46348 101.786 1.41267C102.738 2.36251 102.738 3.90298 101.786 4.85282L84.5429 22.0572L71.3334 35.237C71.4221 35.4915 71.4687 35.7612 71.4687 36.0359C71.4687 36.6812 71.2118 37.3002 70.7543 37.7562L62.1406 46.3508L61.6344 48.7298C67.9583 54.4092 76.8107 56.4716 85.055 54.1041L85.0551 54.1041C85.7195 53.9135 86.4343 54.0133 87.0213 54.3799L87.0214 54.3799C87.6076 54.7463 88.0109 55.3446 88.1292 56.026L90.176 67.8172C90.3941 69.0727 89.6046 70.2816 88.3683 70.5914C85.0348 71.4266 81.6112 71.8437 78.1889 71.8437C74.5758 71.8437 70.9633 71.379 67.4564 70.4496C63.5245 69.408 59.7785 67.7877 56.3355 65.6652L49.5898 72.3957L53.6175 86.2787C53.961 87.4619 53.364 88.7134 52.2295 89.1941L44.8823 92.3069L44.8821 92.307C44.578 92.4357 44.2544 92.5003 43.9302 92.5003C43.619 92.5003 43.3083 92.4405 43.0153 92.3221L43.0152 92.3221C42.4155 92.0796 41.9369 91.6087 41.6852 91.0132L41.6852 91.0131L37.5695 81.2708L38.0301 81.0762L37.5695 81.2707C37.1494 80.2761 36.3778 79.4783 35.3962 79.0235L33.3982 78.0979L19.573 109.058L19.1165 108.854L19.573 109.058C19.2867 109.699 18.7371 110.186 18.0651 110.392C18.065 110.392 18.0649 110.392 18.0648 110.392L17.918 109.914C17.7313 109.972 17.5393 110 17.3479 110C16.9915 110 16.6384 109.902 16.329 109.711L93.9802 4.65227ZM93.9802 4.65227L94.5374 5.20822L93.9802 4.65227ZM56.644 38.446L62.1882 32.9143L65.4512 36.17L59.9071 41.7018L56.644 38.446ZM29.4349 75.0275L16.258 104.536L6.51498 98.5234L17.2414 84.6243L21.5335 83.197C22.1333 82.9977 22.6317 82.5733 22.9239 82.0138L27.5535 73.1503L29.4349 75.0275ZM33.1616 71.8685L29.3639 68.0797V65.6645L53.1973 41.8848L57.2487 45.9272L56.7338 48.3488L33.1616 71.8685ZM46.018 65.9179L47.6037 67.5001L46.8491 68.2532L45.2633 66.6709L46.018 65.9179ZM48.336 85.5595L45.2266 86.8771L42.0599 79.381C41.1682 77.27 39.5295 75.5759 37.4478 74.6113L37.3504 74.5662L41.817 70.1097L44.6835 72.9696L48.336 85.5595ZM52.2884 62.826L51.0501 64.0616L49.4643 62.4793L50.5678 61.3783C51.1287 61.8763 51.7021 62.3595 52.2884 62.826ZM59.038 52.9273C65.871 58.7061 74.9765 61.087 83.7706 59.4068L84.9766 66.3547C79.5911 67.3571 74.0109 67.1537 68.7066 65.7484C63.2783 64.3101 58.2449 61.6277 54.0172 57.9369L59.038 52.9273ZM68.059 31.6266L67.2112 30.7807L77.4443 20.5708L78.6097 21.0993L68.059 31.6266Z" fill="url(#paint0_linear_126_1171)" stroke="black"/>
<path d="M39.6252 60.8868C38.7012 59.9625 37.2026 59.9626 36.2784 60.8867L32.6731 64.492L33.0267 64.8456L32.6731 64.492C31.7489 65.4162 31.7489 66.9146 32.6731 67.8388C33.1353 68.301 33.7416 68.5322 34.3465 68.5322C34.9512 68.5322 35.5579 68.301 36.0199 67.8388C36.0199 67.8388 36.0199 67.8387 36.02 67.8387L39.6252 64.2335C40.5494 63.3093 40.5493 61.8111 39.6252 60.8868Z" fill="url(#paint1_linear_126_1171)" stroke="black"/>
<defs>
<linearGradient id="paint0_linear_126_1171" x1="51.5" y1="1" x2="51.5" y2="110" gradientUnits="userSpaceOnUse">
<stop stop-color="#6842FF"/>
<stop offset="1"/>
</linearGradient>
<linearGradient id="paint1_linear_126_1171" x1="36.1492" y1="60.6936" x2="36.1492" y2="68.0322" gradientUnits="userSpaceOnUse">
<stop stop-color="#6842FF"/>
<stop offset="1"/>
</linearGradient>
</defs>
</svg>