<svg xmlns="http://www.w3.org/2000/svg" width="46" height="108" viewBox="0 0 46 108" fill="none">
  <path d="M43.5821 68.8551H42.4638V53.0701C42.4638 51.7345 41.381 50.6522 40.0459 50.6522H37.9613V8.70157C38.2374 6.03661 37.6067 3.70458 35.9652 2.06284C31.7946 -2.10708 23.1804 0.218427 15.9267 7.47231C12.7203 10.6788 10.3282 14.3691 9.19075 17.8636C8.62505 19.6022 8.39124 21.2246 8.47837 22.6838C8.46869 22.7716 8.46258 22.8602 8.46258 22.9503V50.6526H6.43655C5.10102 50.6526 4.01866 51.7352 4.01866 53.0705V68.8555H2.90031C1.56499 68.8555 0.482422 69.9381 0.482422 71.2734V105.334C0.482422 106.67 1.56499 107.752 2.90031 107.752H43.5821C44.9172 107.752 46 106.67 46 105.334V71.273C46 69.9377 44.9174 68.8551 43.5821 68.8551ZM13.7891 19.36C14.6819 16.6171 16.7073 13.5304 19.3464 10.8915C23.568 6.66986 27.9284 4.85828 30.5414 4.85828C31.4436 4.85828 32.1381 5.07442 32.5455 5.48206C33.5843 6.52086 33.3791 9.41732 31.5248 12.886C31.4914 12.9479 31.4571 13.01 31.4228 13.072C31.3645 13.1787 31.3062 13.285 31.2445 13.3924C30.4728 14.73 29.4959 16.0853 28.3575 17.379C28.3497 17.3876 28.3424 17.3964 28.3346 17.4051C28.1654 17.5968 27.9918 17.7868 27.8156 17.9756C27.7859 18.0074 27.7573 18.0389 27.7276 18.0707C27.5342 18.2763 27.3375 18.4801 27.1361 18.6812C26.1467 19.671 25.094 20.5741 24.0203 21.3637C22.2308 22.6798 20.382 23.6801 18.6677 24.238C18.6247 24.2521 18.5826 24.2639 18.5397 24.2774C18.4492 24.3056 18.3585 24.3346 18.2699 24.3603C18.2196 24.3748 18.171 24.3868 18.1215 24.4005C18.0409 24.4226 17.9603 24.4455 17.8812 24.4653C17.8286 24.4786 17.7772 24.4893 17.7252 24.5015C17.651 24.519 17.5762 24.5373 17.5034 24.5525C17.4489 24.564 17.3963 24.5731 17.3426 24.5834C17.274 24.5967 17.2046 24.611 17.1374 24.6223C17.0827 24.6316 17.0299 24.6383 16.9762 24.6465C16.9118 24.6562 16.847 24.6667 16.7843 24.6747C16.7302 24.6815 16.678 24.6859 16.6248 24.6914C16.5644 24.6977 16.5034 24.7048 16.4442 24.7097C16.3918 24.7139 16.3413 24.7156 16.2897 24.7183C16.2325 24.7215 16.1742 24.7254 16.118 24.7273C16.0673 24.7288 16.0185 24.7278 15.9688 24.7278C15.9147 24.7278 15.8598 24.729 15.807 24.7276C15.7579 24.7261 15.711 24.7225 15.663 24.7196C15.6123 24.7166 15.5607 24.7147 15.5115 24.7101C15.465 24.7059 15.421 24.6994 15.3757 24.6939C15.3276 24.688 15.2787 24.6829 15.2324 24.6756C15.1889 24.6686 15.1478 24.6594 15.1057 24.6512C15.0605 24.6423 15.0146 24.6339 14.971 24.6236C14.9309 24.6139 14.893 24.6021 14.854 24.5912C14.8115 24.5792 14.7684 24.568 14.7276 24.5544C14.6905 24.5419 14.6562 24.5278 14.6206 24.5139C14.5813 24.4988 14.5409 24.4843 14.5034 24.4674C14.4697 24.4525 14.4386 24.4357 14.4066 24.4197C14.3704 24.4014 14.3334 24.3837 14.2991 24.3639C14.2692 24.3464 14.2412 24.3271 14.2128 24.3085C14.18 24.2871 14.1465 24.266 14.1156 24.2431C14.0886 24.2231 14.0642 24.201 14.039 24.1795C14.0095 24.1543 13.9792 24.1299 13.9516 24.1031C13.9419 24.093 13.9325 24.0825 13.9226 24.0724C13.9194 24.069 13.916 24.0659 13.9127 24.0625C13.1397 23.2544 13.0919 21.5022 13.7891 19.36ZM13.2982 29.1843H13.2984C13.3453 29.199 13.3935 29.2117 13.4408 29.2254C13.5078 29.2451 13.5745 29.2658 13.6427 29.2836C13.6959 29.2977 13.75 29.3097 13.8039 29.3228C13.8735 29.3396 13.9426 29.3571 14.0133 29.3725C14.0674 29.384 14.1225 29.3937 14.1772 29.4044C14.249 29.4185 14.3205 29.4326 14.3936 29.4449C14.4487 29.4541 14.5045 29.4613 14.5602 29.4695C14.6339 29.4804 14.7078 29.4916 14.7825 29.5006C14.8389 29.5074 14.8961 29.5124 14.9529 29.5183C15.0287 29.5261 15.1041 29.5341 15.1807 29.5398C15.2379 29.5442 15.296 29.5469 15.3541 29.5501C15.4315 29.5547 15.5088 29.5593 15.5868 29.5621C15.6455 29.564 15.7053 29.5644 15.7645 29.5657C15.8236 29.5667 15.8819 29.5692 15.9417 29.5692C15.9593 29.5692 15.9772 29.568 15.9949 29.568C16.0984 29.5675 16.2028 29.5644 16.3078 29.5608C16.3579 29.5591 16.4074 29.5587 16.4577 29.5562C16.6113 29.549 16.7662 29.5385 16.9226 29.5248C16.9661 29.521 17.0103 29.5151 17.0541 29.5107C17.1705 29.4992 17.2873 29.4867 17.4051 29.4718C17.4668 29.4638 17.5295 29.4541 17.5918 29.4453C17.6935 29.4308 17.7949 29.4158 17.8976 29.3986C17.9652 29.3872 18.0329 29.3748 18.1007 29.3626C18.2002 29.3445 18.3004 29.3251 18.4012 29.3045C18.4705 29.2904 18.5395 29.2756 18.6089 29.2605C18.7123 29.2378 18.8158 29.2136 18.9198 29.1885C18.9867 29.1723 19.0534 29.1565 19.1208 29.1393C19.2357 29.11 19.3512 29.078 19.4672 29.0456C19.5244 29.0296 19.5812 29.0147 19.6391 28.9981C19.8129 28.9476 19.9878 28.8941 20.164 28.8369C20.6009 28.6946 21.0407 28.533 21.4822 28.3524C24.5734 27.0888 27.7495 24.9066 30.5551 22.1011C31.4964 21.1597 32.3528 20.1952 33.1247 19.2208V50.6518H13.2977V29.1843H13.2982ZM8.85445 64.6077H25.7647C27.0999 64.6077 28.1826 63.5252 28.1826 62.1898C28.1826 60.8545 27.0999 59.7719 25.7647 59.7719H8.85445V55.488H10.8805H35.5434H37.628V68.8551H8.85445V64.6077ZM41.1644 102.916H41.1642H13.2984V85.8933C13.2984 84.5578 12.2158 83.4755 10.8805 83.4755C9.54494 83.4755 8.46258 84.558 8.46258 85.8933V102.916H5.31821V73.6911H6.03227C6.16402 73.7134 6.2985 73.7277 6.43676 73.7277H40.0461C40.1841 73.7277 40.3186 73.7134 40.4506 73.6911H41.1644V102.916Z" fill="url(#paint0_linear_137_3194)"/>
  <path d="M35.3894 61.7168C35.3577 61.5621 35.3118 61.4118 35.2514 61.2647C35.191 61.1197 35.1156 60.9794 35.0289 60.8489C34.9418 60.7159 34.8404 60.5925 34.729 60.4814C34.6177 60.3703 34.4923 60.2687 34.3616 60.1792C34.2284 60.0921 34.0882 60.0172 33.9432 59.9568C33.7984 59.8964 33.646 59.8503 33.4911 59.8189C33.1793 59.756 32.8577 59.756 32.5458 59.8189C32.3911 59.8503 32.2411 59.8964 32.0937 59.9568C31.9487 60.0172 31.8084 60.0921 31.6779 60.1792C31.5449 60.2687 31.4216 60.3703 31.3104 60.4814C31.1966 60.5928 31.0977 60.7159 31.0082 60.8489C30.9211 60.9794 30.8462 61.1197 30.7858 61.2647C30.7254 61.4123 30.6795 61.5621 30.6479 61.7168C30.6166 61.874 30.6021 62.0312 30.6021 62.1907C30.6021 62.3479 30.6168 62.5075 30.6479 62.6621C30.6791 62.8168 30.7254 62.9692 30.7858 63.1142C30.8462 63.2617 30.9211 63.4019 31.0082 63.5326C31.0977 63.6656 31.1966 63.7889 31.3104 63.9C31.4218 64.0114 31.5449 64.1128 31.6779 64.1999C31.8084 64.287 31.9487 64.362 32.0937 64.4224C32.2413 64.4828 32.3911 64.5289 32.5458 64.5602C32.703 64.5916 32.8604 64.6086 33.0197 64.6086C33.1769 64.6086 33.3344 64.5918 33.4911 64.5602C33.646 64.5289 33.7984 64.4828 33.9432 64.4224C34.088 64.362 34.2286 64.287 34.3616 64.1999C34.4921 64.1128 34.6179 64.0114 34.729 63.9C35.1788 63.4503 35.4374 62.8265 35.4374 62.1905C35.4374 62.031 35.4208 61.8738 35.3894 61.7168Z" fill="url(#paint1_linear_137_3194)"/>
  <path d="M13.25 78.1682C13.2186 78.0137 13.1725 77.8611 13.1121 77.7136C13.0517 77.5686 12.9768 77.4282 12.8897 77.2977C12.8026 77.1647 12.7011 77.0414 12.5898 76.9303C12.4785 76.8192 12.3554 76.7175 12.2224 76.6281C12.0919 76.5409 11.9515 76.4686 11.804 76.4079C11.659 76.3475 11.5066 76.2991 11.3519 76.2701C11.04 76.2072 10.7208 76.2072 10.4089 76.2701C10.2542 76.2991 10.1018 76.3475 9.9543 76.4079C9.8093 76.4683 9.66893 76.5409 9.53845 76.6281C9.40544 76.7175 9.28212 76.8192 9.171 76.9303C9.05988 77.0414 8.95823 77.1647 8.8711 77.2977C8.78397 77.4282 8.70906 77.5686 8.64866 77.7136C8.58826 77.8611 8.53985 78.0135 8.51081 78.1682C8.47945 78.3229 8.4624 78.4826 8.4624 78.6396C8.4624 78.7966 8.47924 78.9563 8.51081 79.111C8.53985 79.2657 8.58826 79.418 8.64866 79.5631C8.70906 79.7106 8.78397 79.8507 8.8711 79.9814C8.95823 80.1144 9.05967 80.2378 9.171 80.3489C9.28233 80.4602 9.40544 80.5616 9.53845 80.6488C9.66893 80.7359 9.8093 80.8108 9.9543 80.8712C10.1018 80.9316 10.2542 80.98 10.4089 81.0091C10.5636 81.0404 10.7233 81.0575 10.8803 81.0575C11.0375 81.0575 11.197 81.0406 11.3517 81.0091C11.5064 80.98 11.6588 80.9316 11.8038 80.8712C11.9513 80.8108 12.0915 80.7359 12.2221 80.6488C12.3551 80.5616 12.4785 80.4602 12.5896 80.3489C12.7009 80.2378 12.8024 80.1144 12.8895 79.9814C12.9766 79.851 13.0515 79.7106 13.1119 79.5631C13.1723 79.418 13.2182 79.2657 13.2498 79.111C13.2811 78.9563 13.2982 78.7966 13.2982 78.6396C13.2982 78.4826 13.2816 78.3229 13.25 78.1682Z" fill="url(#paint2_linear_137_3194)"/>
  <defs>
    <linearGradient id="paint0_linear_137_3194" x1="23.2412" y1="0" x2="23.2412" y2="107.752" gradientUnits="userSpaceOnUse">
      <stop stop-color="#6842FF"/>
      <stop offset="1"/>
    </linearGradient>
    <linearGradient id="paint1_linear_137_3194" x1="33.0197" y1="59.7717" x2="33.0197" y2="64.6086" gradientUnits="userSpaceOnUse">
      <stop stop-color="#6842FF"/>
      <stop offset="1"/>
    </linearGradient>
    <linearGradient id="paint2_linear_137_3194" x1="10.8803" y1="76.2229" x2="10.8803" y2="81.0575" gradientUnits="userSpaceOnUse">
      <stop stop-color="#6842FF"/>
      <stop offset="1"/>
    </linearGradient>
  </defs>
</svg>