<svg xmlns="http://www.w3.org/2000/svg" width="101" height="95" viewBox="0 0 101 95" fill="none">
<path d="M93.813 0.935059H7.18782C3.22453 0.935059 0 4.15959 0 8.12288V63.0016C0 66.9649 3.22453 70.1894 7.18782 70.1894H28.2621C28.6578 76.3576 28.5426 83.415 28.4629 88.256C28.4368 89.8483 28.414 91.2231 28.414 92.2757C28.414 93.3583 29.2916 94.2359 30.3742 94.2359C31.4568 94.2359 32.3345 93.3583 32.3345 92.2757C32.3345 91.3497 32.353 90.1411 32.3757 88.7481H41.4825V92.2757C41.4825 93.3583 42.3602 94.2359 43.4428 94.2359C44.5254 94.2359 45.403 93.3583 45.403 92.2757V88.7481H55.5966V92.2757C55.5966 93.3583 56.4742 94.2359 57.5568 94.2359C58.6394 94.2359 59.5171 93.3583 59.5171 92.2757V88.7481H68.6239C68.6466 90.1411 68.6651 91.3493 68.6651 92.2757C68.6651 93.3583 69.5428 94.2359 70.6254 94.2359C71.708 94.2359 72.5856 93.3583 72.5856 92.2757C72.5856 91.2231 72.5631 89.8483 72.5371 88.256C72.4576 83.415 72.3422 76.3576 72.7379 70.1894H93.8122C97.7755 70.1894 101 66.9649 101 63.0016V8.12288C101.001 4.15959 97.7763 0.935059 93.813 0.935059ZM31.5645 63.9424H41.4827V66.269H31.8614C31.7748 65.4655 31.6762 64.6879 31.5645 63.9424ZM32.1875 70.1894H41.4827V75.5482H32.4072C32.3654 73.7476 32.296 71.9414 32.1875 70.1894ZM41.4831 84.8277H32.4351C32.4554 83.1501 32.4686 81.3404 32.4605 79.4689H41.4833L41.4831 84.8277ZM55.5974 84.8277H45.4038V79.4689H55.5974V84.8277ZM55.5974 75.5482H45.4038V70.1894H55.5974V75.5482ZM55.5974 66.269H45.4038V63.9424H55.5974V66.269ZM59.5181 84.8277V79.4689H68.5411C68.5328 81.3404 68.5458 83.1501 68.5661 84.8277H59.5181ZM68.5935 75.5482H59.5181V70.1894H68.8137C68.7048 71.9414 68.6354 73.7478 68.5935 75.5482ZM69.1392 66.269H59.5179V63.9424H69.4363C69.3246 64.6879 69.226 65.4655 69.1392 66.269ZM71.8052 60.0217C71.797 60.0215 71.7889 60.0217 71.7806 60.0217H57.5701C57.5659 60.0217 57.5618 60.0211 57.5574 60.0211C57.5533 60.0211 57.5491 60.0217 57.5448 60.0217H43.4558C43.4516 60.0217 43.4475 60.0211 43.4432 60.0211C43.439 60.0211 43.4349 60.0217 43.4305 60.0217H29.2279C29.2153 60.0217 29.203 60.0215 29.1906 60.0217H24.849C23.1915 60.0217 21.8432 58.6732 21.8432 57.0159C21.8432 55.3585 23.1917 54.0102 24.849 54.0102H76.151C77.8081 54.0102 79.156 55.3579 79.1568 57.0148C79.1568 57.0154 79.1568 57.0156 79.1568 57.0161C79.1568 57.0163 79.1568 57.0169 79.1568 57.0175C79.156 58.6744 77.8081 60.0221 76.151 60.0221H71.8052V60.0217ZM61.1461 50.0895H53.1355L57.3949 40.5037L61.528 42.3401C60.7553 44.8655 60.6265 47.5134 61.1461 50.0895ZM46.0571 35.4655C44.6591 37.5873 42.6188 39.2159 40.2372 40.1115C40.1399 39.3887 40.0843 38.6567 40.0843 37.9161C40.0843 36.2512 40.3362 34.6443 40.8018 33.13L46.0571 35.4655ZM42.3988 29.5496C43.6134 27.5245 45.2543 25.784 47.1972 24.4521C48.1279 26.8191 48.2863 29.4238 47.6489 31.8827L42.3988 29.5496ZM49.6798 37.0752L53.8119 38.9114L48.8449 50.0893H45.5437C43.6197 48.3733 42.1528 46.2602 41.2275 43.92C44.7546 42.6969 47.754 40.2739 49.6798 37.0752ZM50.6882 22.6344C52.4669 21.9675 54.3909 21.6004 56.3995 21.6004C58.0644 21.6004 59.6711 21.8523 61.1856 22.3178L55.4039 35.3286L51.2717 33.4924C52.3549 29.9201 52.1436 26.0712 50.6882 22.6344ZM58.9868 36.9207L64.7658 23.9155C67.826 25.7511 70.2348 28.5615 71.5662 31.9141C68.0416 33.1375 65.0441 35.5598 63.119 38.7571L58.9868 36.9207ZM65.1451 43.9476L70.4056 46.285C69.5645 47.6901 68.5075 48.9736 67.2563 50.0893H65.1708C64.6231 48.0669 64.6164 45.9629 65.1451 43.9476ZM66.742 40.3668C68.1406 38.2444 70.1811 36.6158 72.5633 35.7206C72.6606 36.4394 72.7152 37.1713 72.7152 37.9161C72.7152 39.561 72.4651 41.1697 71.9962 42.7016L66.742 40.3668ZM76.6361 37.9161C76.6361 26.7577 67.5583 17.6799 56.3999 17.6799C45.2414 17.6799 36.1636 26.7577 36.1636 37.9161C36.1636 42.3661 37.6119 46.6158 40.2326 50.0895H24.8493C22.5603 50.0895 20.5278 51.2064 19.2661 52.923V16.069H81.7351V52.923C80.4732 51.2062 78.4407 50.0895 76.1518 50.0895H72.5679C75.1884 46.6162 76.6361 42.3685 76.6361 37.9161ZM97.0801 63.0016C97.0801 64.8031 95.6146 66.2688 93.813 66.2688H73.082C73.1755 65.4572 73.2824 64.6788 73.4039 63.9422H76.1518C79.2904 63.9422 81.9464 61.8433 82.7942 58.976H83.6957C84.7783 58.976 85.656 58.0984 85.656 57.0157V14.1086C85.656 13.026 84.7783 12.1483 83.6957 12.1483H17.306C16.2234 12.1483 15.3458 13.026 15.3458 14.1086V57.0156C15.3458 58.0982 16.2234 58.9758 17.306 58.9758H18.2076C19.0554 61.8431 21.7112 63.942 24.8499 63.942H27.5979C27.7194 64.6786 27.8263 65.457 27.9196 66.2686H7.18782C5.38618 66.2686 3.92068 64.8027 3.92068 63.0014V8.12288C3.92068 6.32124 5.38618 4.85574 7.18782 4.85574H93.813C95.6146 4.85574 97.0801 6.32124 97.0801 8.12288V63.0016Z" fill="url(#paint0_linear_137_2936)"/>
<defs>
<linearGradient id="paint0_linear_137_2936" x1="50.5" y1="0.935059" x2="50.5" y2="94.2359" gradientUnits="userSpaceOnUse">
<stop stop-color="#6842FF"/>
<stop offset="1"/>
</linearGradient>
</defs>
</svg>