<svg xmlns="http://www.w3.org/2000/svg" width="101" height="101" viewBox="0 0 101 101" fill="none">
<path d="M94.3224 54.5722C90.731 50.9811 85.5181 48.0936 80.917 45.5455C79.3348 44.6692 77.7134 43.7701 76.3332 42.9285C76.3332 42.9108 76.3345 42.8928 76.3345 42.8753C76.3345 40.9208 75.5772 39.0878 74.2027 37.7132L70.1031 33.6139L75.3457 28.3713L77.6957 32.8733C78.0281 33.5101 78.686 33.9054 79.3981 33.9054C79.4373 33.9054 79.477 33.9042 79.5164 33.9019C80.2731 33.8553 80.9316 33.3681 81.1975 32.6579L87.4175 16.0554C87.6817 15.3502 87.5094 14.5556 86.977 14.0228C86.4444 13.4906 85.6496 13.3186 84.9444 13.5821L68.3417 19.8021C67.632 20.068 67.1445 20.7265 67.098 21.4836C67.0516 22.2403 67.4546 22.9536 68.1267 23.3044L72.6277 25.6538L67.3854 30.8961L63.286 26.7967C61.9115 25.4222 60.0781 24.6653 58.1236 24.6653C58.1058 24.6653 58.0885 24.6663 58.0707 24.6665C57.2274 23.284 56.3286 21.6627 55.451 20.0775C52.9041 15.4794 50.0171 10.2677 46.4271 6.67723C40.4422 0.692776 33.3825 -1.28284 25.4453 0.806796C19.1466 2.46383 12.8136 6.49791 6.10302 10.7725L5.93732 10.878C4.87544 11.5546 3.796 12.2417 2.69585 12.9323C0.0055411 14.6235 -0.808772 18.1879 0.881006 20.8778C2.57098 23.5685 6.13557 24.3834 8.82726 22.6942C8.9403 22.6232 9.05057 22.5528 9.16301 22.4822L42.4818 55.8007L32.2261 66.0566L19.8929 65.9674C19.3806 65.9733 18.8841 66.1664 18.5207 66.53L4.75688 80.2942C4.20927 80.8422 4.04396 81.6652 4.33789 82.3815C4.63162 83.0982 5.32718 83.5682 6.10145 83.574L17.3446 83.6554L17.4263 94.899C17.432 95.6734 17.9019 96.3688 18.6187 96.6627C18.8545 96.7594 19.1018 96.8063 19.347 96.8063C19.8471 96.8063 20.3383 96.6109 20.706 96.2437L34.4698 82.4795C34.8336 82.1158 35.0362 81.6212 35.0326 81.107L34.9433 68.7737L45.1991 58.5179L78.5183 91.837C78.4473 91.9497 78.3766 92.0601 78.3056 92.1734C76.6162 94.8651 77.4315 98.4293 80.1222 100.119C81.0721 100.716 82.1306 101 83.1771 101C85.0955 101 86.9741 100.044 88.0687 98.3028C88.7583 97.2038 89.4458 96.1244 90.1222 95.0627L90.2284 94.8964C94.5007 88.19 98.5364 81.8554 100.194 75.5555C102.283 67.6173 100.308 60.5578 94.3224 54.5722ZM82.3381 18.6623L79.1101 27.2789L77.5414 24.2739L77.5412 24.2733C77.5069 24.2078 77.468 24.1443 77.4256 24.0822C77.4142 24.0656 77.4014 24.0496 77.3893 24.0333C77.3582 23.9902 77.325 23.9482 77.2897 23.9072C77.2731 23.8883 77.2562 23.8697 77.239 23.8512C77.2244 23.8356 77.2116 23.8192 77.1962 23.8038C77.1741 23.7817 77.1504 23.7626 77.1276 23.7421C77.111 23.7267 77.0948 23.7111 77.0772 23.6965C77.0216 23.6494 76.9648 23.6056 76.9054 23.5655C76.9046 23.5647 76.9039 23.5644 76.9031 23.5638C76.9031 23.5638 76.9029 23.5638 76.9025 23.5636C76.8435 23.5241 76.7825 23.4882 76.7204 23.4563L73.7214 21.8906L82.3381 18.6623ZM18.4613 79.8216L10.7194 79.7652L20.6687 69.8157L28.4108 69.8715L25.3913 72.891L18.4613 79.8216ZM21.2351 90.2804L21.1787 82.5383L31.1283 72.5886L31.1844 80.3311L21.2351 90.2804ZM74.2025 48.0373C74.5974 47.6424 74.9395 47.209 75.2293 46.7462C76.4466 47.4615 77.7649 48.192 79.0568 48.9073C82.8327 50.9989 87.0406 53.3316 90.1856 55.9921L87.457 58.7203C84.6254 56.3876 80.7174 54.22 77.1944 52.2687L77.1708 52.2557C75.5544 51.3601 73.9944 50.4957 72.5904 49.6498L74.2025 48.0373ZM67.3864 36.3306L71.486 40.4302C72.1348 41.079 72.4924 41.9473 72.4924 42.8753C72.4924 43.803 72.1348 44.6714 71.4858 45.3206L69.7293 47.0772C69.0805 47.7264 68.2121 48.0837 67.2842 48.0837C66.3561 48.0837 65.4875 47.7264 64.8387 47.0772L60.7393 42.9779L67.3864 36.3306ZM55.6802 29.5141C56.3286 28.8653 57.1966 28.5078 58.1246 28.5078C59.0527 28.5078 59.9212 28.8655 60.5701 29.5143L64.6694 33.6137L58.0224 40.2607L53.9234 36.1617C52.5749 34.813 52.5749 32.6192 53.9232 31.2709L55.6802 29.5141ZM52.0932 21.944C52.8078 23.2347 53.5379 24.5527 54.2538 25.7708C53.7912 26.0606 53.3578 26.4024 52.9631 26.7971L51.3507 28.4094C50.5012 26.9993 49.6313 25.4289 48.7258 23.7944C46.7792 20.2801 44.6122 16.3736 42.2802 13.5425L45.0084 10.8143C47.6677 13.9591 50.0004 18.166 52.0932 21.944ZM42.3023 8.08669L39.5741 10.8149C36.6344 8.37628 33.5766 7.39054 30.0319 7.75173L29.192 3.97666C34.0863 3.34284 38.3354 4.67774 42.3023 8.08669ZM10.0485 17.3708C8.97857 18.0522 7.89065 18.7452 6.78379 19.4403C5.88643 20.0031 4.6979 19.7319 4.13431 18.8343C3.57132 17.9379 3.84334 16.7494 4.73952 16.1862C5.84559 15.4918 6.93233 14.7998 8.00111 14.1193L8.17274 14.0098C14.2495 10.1386 20.0081 6.47227 25.4398 4.80498L26.2774 8.56881C21.4469 10.1112 16.2182 13.4397 10.2318 17.2538L10.0485 17.3708ZM12.4879 20.373C18.5882 16.4865 23.8646 13.1422 28.3787 11.9541C32.3802 10.9015 35.1555 11.7069 38.2771 14.829C40.7192 17.271 43.1872 21.726 45.3749 25.6761C46.6938 28.0577 47.9486 30.3215 49.2223 32.2385C48.7452 34.5639 49.4052 37.0784 51.2055 38.8789L55.3044 42.9779L45.1985 53.0842L12.4879 20.373ZM47.9161 55.8007L58.022 45.6948L62.1216 49.7944C63.4963 51.1689 65.3297 51.9258 67.284 51.9258H67.2842C67.7868 51.9258 68.281 51.8749 68.7617 51.7773C70.675 53.0487 72.9333 54.3005 75.3086 55.6163L75.3423 55.635C79.2736 57.8124 83.7292 60.2802 86.1714 62.7232C89.2931 65.8439 90.0992 68.6192 89.0465 72.621C87.8588 77.1334 84.5142 82.4113 80.6274 88.5123L47.9161 55.8007ZM86.9867 92.833L86.8812 92.9985C86.2006 94.0675 85.5086 95.1539 84.815 96.2591C84.2512 97.1565 83.0629 97.4283 82.1657 96.8651C81.2686 96.3017 80.9969 95.1136 81.5597 94.217C82.2951 93.0465 83.0272 91.8968 83.7462 90.768C87.5607 84.7806 90.8894 79.5517 92.4316 74.7223L96.1955 75.5598C94.5274 80.9929 90.8598 86.7535 86.9867 92.833ZM97.024 71.808L93.2493 70.9683C93.6103 67.4232 92.6244 64.3656 90.1856 61.4263L92.9139 58.6982C96.3221 62.6646 97.6568 66.9135 97.024 71.808Z" fill="url(#paint0_linear_137_3070)"/>
<defs>
<linearGradient id="paint0_linear_137_3070" x1="50.5" y1="0.000244141" x2="50.5" y2="101" gradientUnits="userSpaceOnUse">
<stop stop-color="#6842FF"/>
<stop offset="1"/>
</linearGradient>
</defs>
</svg>