<svg xmlns="http://www.w3.org/2000/svg" width="89" height="93" viewBox="0 0 89 93" fill="none">
<path d="M87.4198 32.708C86.8963 32.4012 86.2493 32.395 85.7194 32.6916L77.8887 37.0788V33.2769C77.8891 14.9279 62.961 0 44.6122 0C26.2635 0 11.3354 14.9279 11.3354 33.2769V37.0788L3.50467 32.6916C2.97501 32.3948 2.32801 32.4014 1.80434 32.708C1.28067 33.0148 0.958984 33.5764 0.958984 34.1832V50.4795C0.958984 56.6022 5.53668 61.6727 11.4482 62.457C12.8433 79.5319 27.1838 93 44.6119 93C62.0399 93 76.3807 79.5319 77.7757 62.457C83.6876 61.6727 88.2649 56.6024 88.2649 50.4795V34.1832C88.2651 33.5762 87.9434 33.0149 87.4198 32.708ZM11.3354 58.9764C7.37252 58.1805 4.37873 54.6732 4.37873 50.4795V37.1009L11.3354 40.9984V58.9764ZM44.6122 3.41974C59.6531 3.41974 72.13 14.6002 74.1738 29.0861C70.3002 26.3124 67.3449 22.3192 65.8859 17.7799C65.6872 17.1614 65.1548 16.7087 64.5124 16.6121C63.8692 16.5153 63.2282 16.7916 62.856 17.3241C58.6926 23.2861 51.8724 26.8455 44.6126 26.8455C37.3533 26.8455 30.5324 23.2861 26.3668 17.3238C25.9945 16.7912 25.3525 16.5158 24.7103 16.6123C24.0678 16.7091 23.5358 17.1617 23.3371 17.7802C21.8789 22.3203 18.9243 26.313 15.0508 29.085C17.095 14.5995 29.5715 3.41974 44.6122 3.41974ZM74.4693 39.9966V59.7233C74.4693 76.1865 61.0756 89.5801 44.6122 89.5801C28.1489 89.5801 14.7551 76.1861 14.7551 59.723V39.9963V33.3246C19.4427 30.674 23.2219 26.5554 25.4726 21.6938C30.3135 27.1084 37.2681 30.2653 44.6124 30.2653C51.9578 30.2653 58.9117 27.1085 63.7509 21.694C66.0022 26.5551 69.7819 30.674 74.4693 33.3265V39.9966ZM84.8454 50.4795C84.8454 54.6732 81.8516 58.1805 77.8887 58.9766V40.9986L84.8454 37.1013V50.4795Z" fill="url(#paint0_linear_137_3011)"/>
<path d="M38.3104 44.5593C37.4314 44.2155 36.4393 44.6493 36.0951 45.5288C35.9082 46.0068 35.4984 46.14 35.3309 46.1748C35.1644 46.2097 34.735 46.252 34.3719 45.8889L29.6387 41.1559C28.2706 39.788 26.3826 39.1189 24.4585 39.3187C22.5346 39.519 20.825 40.5633 19.768 42.1837L17.7896 45.2174C17.2737 46.0085 17.4968 47.0678 18.288 47.5837C19.0788 48.0993 20.1385 47.8766 20.6542 47.0852L22.6326 44.0515C23.1238 43.2984 23.9185 42.8131 24.8129 42.7201C25.7058 42.6272 26.5846 42.938 27.2205 43.5741L31.9537 48.3071C32.8032 49.1563 33.9374 49.618 35.1099 49.6178C35.4161 49.6178 35.7247 49.5864 36.0315 49.5223C37.5139 49.2122 38.7281 48.1849 39.2798 46.7746C39.6238 45.8953 39.1897 44.9034 38.3104 44.5593Z" fill="url(#paint1_linear_137_3011)"/>
<path d="M71.435 45.2179L69.456 42.1841C68.3992 40.5639 66.6896 39.5194 64.7657 39.3191C62.8409 39.1195 60.9534 39.7883 59.5853 41.1564L54.8523 45.8894C54.4892 46.2525 54.0596 46.21 53.8933 46.1753C53.726 46.1402 53.316 46.0073 53.1289 45.529C52.7847 44.6497 51.7924 44.2161 50.9135 44.5598C50.0341 44.904 49.6 45.8958 49.9442 46.7753C50.4962 48.1855 51.7107 49.2127 53.193 49.5227C53.4998 49.587 53.8084 49.6183 54.1145 49.6183C55.287 49.6183 56.4212 49.1569 57.2707 48.3076L62.0037 43.5746C62.6398 42.9385 63.5189 42.6284 64.4117 42.7205C65.3061 42.8137 66.1006 43.2992 66.5919 44.0521L68.5705 47.0859C69.0868 47.8769 70.1463 48.0994 70.9368 47.5839C71.7276 47.0681 71.9507 46.0087 71.435 45.2179Z" fill="url(#paint2_linear_137_3011)"/>
<path d="M37.3076 58.2326C37.2619 57.7814 37.0386 57.3669 36.6873 57.0801L25.294 47.7848C24.5619 47.1876 23.4846 47.2971 22.8881 48.0287C19.7296 51.9004 20.3092 57.6199 24.181 60.779C25.8601 62.1489 27.8865 62.8155 29.9014 62.8155C32.5321 62.8155 35.143 61.6787 36.9318 59.4861C37.2181 59.1344 37.3536 58.6836 37.3076 58.2326ZM26.3431 58.1292C24.3943 56.539 23.7849 53.9068 24.6624 51.6828L32.9959 58.4818C30.9931 59.7874 28.2919 59.7189 26.3431 58.1292Z" fill="url(#paint3_linear_137_3011)"/>
<path d="M66.3357 48.0285C65.7388 47.2972 64.6621 47.1875 63.9301 47.7848L52.5367 57.08C52.1854 57.3666 51.9622 57.7812 51.9164 58.2322C51.8708 58.6834 52.0063 59.1344 52.2926 59.4857C54.0815 61.6784 56.6915 62.8151 59.3224 62.8151C61.3372 62.8151 63.3641 62.1483 65.043 60.7786C68.9145 57.62 69.4943 51.9002 66.3357 48.0285ZM62.8811 58.1292C60.9323 59.7191 58.2311 59.7877 56.2283 58.4816L64.5618 51.6826C65.4393 53.9066 64.8299 56.5391 62.8811 58.1292Z" fill="url(#paint4_linear_137_3011)"/>
<path d="M57.4605 65.8525C55.7043 64.4621 53.3331 65.0215 50.5882 65.6687C50.495 65.6909 50.3996 65.713 50.3057 65.735C50.899 63.024 51.1852 59.9149 51.1852 56.8911C51.1852 55.9468 50.4198 55.1812 49.4753 55.1812C48.5307 55.1812 47.7653 55.9468 47.7653 56.8911C47.7653 65.5628 45.4995 70.0195 44.6117 70.3003C43.7235 70.0197 41.458 65.5628 41.458 56.8911C41.458 55.9468 40.6926 55.1813 39.7481 55.1813C38.8036 55.1813 38.0381 55.9469 38.0381 56.8911C38.0381 59.9147 38.3247 63.0238 38.9176 65.7348C38.8239 65.7127 38.7289 65.6909 38.6359 65.6687C35.8906 65.0215 33.5195 64.4622 31.7635 65.8525C30.2363 67.0615 30.0596 69.1304 30.0596 70.5815C30.0596 78.6068 36.5875 85.136 44.6115 85.136C52.6356 85.136 59.1636 78.6068 59.1636 70.5815C59.1645 69.1304 58.988 67.0613 57.4605 65.8525ZM49.5788 80.5423V80.2108C49.5788 79.2665 48.8136 78.501 47.869 78.501C46.9245 78.501 46.1591 79.2667 46.1591 80.2108V81.6064C45.6532 81.677 45.1375 81.7163 44.6124 81.7163C44.0873 81.7163 43.5712 81.677 43.0654 81.6064V80.2112C43.0654 79.2668 42.3001 78.5012 41.3556 78.5012C40.4111 78.5012 39.6456 79.2668 39.6456 80.2112V80.5425C35.9943 78.7134 33.4802 74.9369 33.4802 70.5819C33.4802 68.9046 33.8451 68.5671 33.8867 68.5344C34.1888 68.2958 35.1689 68.4211 36.2252 68.6338V73.4502C36.2252 74.3945 36.9906 75.1601 37.9351 75.1601C38.8797 75.1601 39.6449 74.3945 39.6449 73.4502V69.4039C39.7826 69.4332 39.9201 69.4623 40.0605 69.4906C41.1289 72.0517 42.6347 73.7244 44.6122 73.7244C46.5897 73.7244 48.0955 72.0517 49.1639 69.4908C49.3044 69.4624 49.4419 69.4334 49.5795 69.4041V73.4502C49.5795 74.3945 50.345 75.1601 51.2895 75.1601C52.234 75.1601 52.9995 74.3945 52.9995 73.4502V68.634C54.0562 68.4213 55.0369 68.2956 55.3388 68.5346C55.3806 68.5677 55.7453 68.9052 55.7453 70.5821C55.7448 74.9365 53.2303 78.7132 49.5788 80.5423Z" fill="url(#paint5_linear_137_3011)"/>
<defs>
<linearGradient id="paint0_linear_137_3011" x1="44.612" y1="0" x2="44.612" y2="93" gradientUnits="userSpaceOnUse">
<stop stop-color="#6842FF"/>
<stop offset="1"/>
</linearGradient>
<linearGradient id="paint1_linear_137_3011" x1="28.4547" y1="39.2839" x2="28.4547" y2="49.6178" gradientUnits="userSpaceOnUse">
<stop stop-color="#6842FF"/>
<stop offset="1"/>
</linearGradient>
<linearGradient id="paint2_linear_137_3011" x1="60.7694" y1="39.2844" x2="60.7694" y2="49.6183" gradientUnits="userSpaceOnUse">
<stop stop-color="#6842FF"/>
<stop offset="1"/>
</linearGradient>
<linearGradient id="paint3_linear_137_3011" x1="29.084" y1="47.3997" x2="29.084" y2="62.8155" gradientUnits="userSpaceOnUse">
<stop stop-color="#6842FF"/>
<stop offset="1"/>
</linearGradient>
<linearGradient id="paint4_linear_137_3011" x1="60.14" y1="47.3997" x2="60.14" y2="62.8151" gradientUnits="userSpaceOnUse">
<stop stop-color="#6842FF"/>
<stop offset="1"/>
</linearGradient>
<linearGradient id="paint5_linear_137_3011" x1="44.6116" y1="55.1812" x2="44.6116" y2="85.136" gradientUnits="userSpaceOnUse">
<stop stop-color="#6842FF"/>
<stop offset="1"/>
</linearGradient>
</defs>
</svg>