<svg xmlns="http://www.w3.org/2000/svg" width="102" height="90" viewBox="0 0 102 90" fill="none">
  <path d="M25.1787 33.4116C25.1787 34.4766 26.0421 35.34 27.1071 35.34C28.1722 35.34 29.0356 34.4766 29.0356 33.4116V28.655H33.7922C34.8572 28.655 35.7206 27.7915 35.7206 26.7265C35.7206 25.6615 34.8572 24.7981 33.7922 24.7981H29.0356V20.0415C29.0356 18.9765 28.1722 18.113 27.1071 18.113C26.0421 18.113 25.1787 18.9765 25.1787 20.0415V24.7981H20.4221C19.3571 24.7981 18.4937 25.6615 18.4937 26.7265C18.4937 27.7915 19.3571 28.655 20.4221 28.655H25.1787V33.4116Z" fill="url(#paint0_linear_137_3090)"/>
  <path d="M29.3034 55.6519C24.554 55.6519 20.6899 59.5159 20.6899 64.2653C20.6899 69.0148 24.554 72.8788 29.3034 72.8788C34.0529 72.8788 37.9169 69.0148 37.9169 64.2653C37.9169 59.5159 34.0529 55.6519 29.3034 55.6519ZM29.3034 69.022C26.6806 69.022 24.5468 66.8882 24.5468 64.2653C24.5468 61.6425 26.6806 59.5087 29.3034 59.5087C31.9263 59.5087 34.0601 61.6425 34.0601 64.2653C34.0601 66.8878 31.9263 69.022 29.3034 69.022Z" fill="url(#paint1_linear_137_3090)"/>
  <path d="M63.5811 31.1503C63.2788 30.1289 62.206 29.5462 61.1847 29.8483C60.4659 30.0612 43.4763 35.263 34.739 53.0002C34.2683 53.9556 34.6614 55.1114 35.6167 55.5821C35.8908 55.7172 36.181 55.7811 36.4672 55.7809C37.1787 55.7809 37.8632 55.3855 38.1986 54.7042C46.1515 38.5591 62.057 33.6134 62.2805 33.5459C63.3008 33.2432 63.8828 32.171 63.5811 31.1503Z" fill="url(#paint2_linear_137_3090)"/>
  <path d="M93.3388 0.992188H8.35627C3.74881 0.992188 0 4.741 0 9.34846V81.6437C0 86.2512 3.74881 90 8.35627 90H93.3388C97.9462 90 101.695 86.2512 101.695 81.6437V9.34846C101.695 4.7406 97.9462 0.992188 93.3388 0.992188ZM63.0529 86.1433H38.6425V79.7155H63.0529V86.1433ZM14.1414 75.8586V15.1336H87.5537V75.8586H14.1414ZM97.8384 81.6437C97.8384 84.1247 95.8198 86.1433 93.3388 86.1433H66.91V79.7155H89.4819C90.5469 79.7155 91.4104 78.8521 91.4104 77.7871V13.2051C91.4104 12.1401 90.5469 11.2767 89.4819 11.2767H12.2131C11.1481 11.2767 10.2847 12.1401 10.2847 13.2051V77.7869C10.2847 78.8519 11.1481 79.7153 12.2131 79.7153H34.7859V86.1431H8.35627C5.87527 86.1431 3.85667 84.1245 3.85667 81.6435V9.34846C3.85667 6.86746 5.87527 4.84885 8.35627 4.84885H93.3388C95.8198 4.84885 97.8384 6.86746 97.8384 9.34846V81.6437Z" fill="url(#paint3_linear_137_3090)"/>
  <path d="M73.7736 20.0225C69.0242 20.0225 65.1602 23.8865 65.1602 28.636C65.1602 33.3854 69.0242 37.2494 73.7736 37.2494C78.5231 37.2494 82.3871 33.3854 82.3871 28.636C82.3871 23.8865 78.5229 20.0225 73.7736 20.0225ZM73.7736 33.3924C71.1508 33.3924 69.017 31.2586 69.017 28.6358C69.017 26.0129 71.1508 23.8791 73.7736 23.8791C76.3965 23.8791 78.5303 26.0129 78.5303 28.6358C78.5303 31.2586 76.3965 33.3924 73.7736 33.3924Z" fill="url(#paint4_linear_137_3090)"/>
  <path d="M77.1145 57.8137H72.3578V53.0571C72.3578 51.9921 71.4944 51.1287 70.4294 51.1287C69.3644 51.1287 68.501 51.9921 68.501 53.0571V57.8137H63.7444C62.6793 57.8137 61.8159 58.6771 61.8159 59.7422C61.8159 60.8072 62.6793 61.6706 63.7444 61.6706H68.501V66.4272C68.501 67.4922 69.3644 68.3556 70.4294 68.3556C71.4944 68.3556 72.3578 67.4922 72.3578 66.4272V61.6706H77.1145C78.1795 61.6706 79.0429 60.8072 79.0429 59.7422C79.0429 58.6771 78.1795 57.8137 77.1145 57.8137Z" fill="url(#paint5_linear_137_3090)"/>
  <defs>
    <linearGradient id="paint0_linear_137_3090" x1="27.1071" y1="18.113" x2="27.1071" y2="35.34" gradientUnits="userSpaceOnUse">
      <stop stop-color="#6842FF"/>
      <stop offset="1"/>
    </linearGradient>
    <linearGradient id="paint1_linear_137_3090" x1="29.3034" y1="55.6519" x2="29.3034" y2="72.8788" gradientUnits="userSpaceOnUse">
      <stop stop-color="#6842FF"/>
      <stop offset="1"/>
    </linearGradient>
    <linearGradient id="paint2_linear_137_3090" x1="49.1004" y1="29.7686" x2="49.1004" y2="55.7809" gradientUnits="userSpaceOnUse">
      <stop stop-color="#6842FF"/>
      <stop offset="1"/>
    </linearGradient>
    <linearGradient id="paint3_linear_137_3090" x1="50.8475" y1="0.992187" x2="50.8475" y2="90" gradientUnits="userSpaceOnUse">
      <stop stop-color="#6842FF"/>
      <stop offset="1"/>
    </linearGradient>
    <linearGradient id="paint4_linear_137_3090" x1="73.7736" y1="20.0225" x2="73.7736" y2="37.2494" gradientUnits="userSpaceOnUse">
      <stop stop-color="#6842FF"/>
      <stop offset="1"/>
    </linearGradient>
    <linearGradient id="paint5_linear_137_3090" x1="70.4294" y1="51.1287" x2="70.4294" y2="68.3556" gradientUnits="userSpaceOnUse">
      <stop stop-color="#6842FF"/>
      <stop offset="1"/>
    </linearGradient>
  </defs>
</svg>